<svg xmlns="http://www.w3.org/2000/svg" xmlns:xlink="http://www.w3.org/1999/xlink" width="500" zoomAndPan="magnify" viewBox="0 0 375 374.999991" height="500" preserveAspectRatio="xMidYMid meet" version="1.0"><defs><clipPath id="3c17b3e5bd"><path d="M 0 141.367188 L 375 141.367188 L 375 235.867188 L 0 235.867188 Z M 0 141.367188 " clip-rule="nonzero"/></clipPath></defs><g clip-path="url(#3c17b3e5bd)"><path fill="#5271ff" d="M 121.207031 178.355469 C 121.207031 171.550781 114.601562 164.5 103.296875 164.5 C 90.667969 164.5 76.542969 173.816406 74.515625 192.453125 C 72.246094 211.132812 84.105469 219.40625 95.722656 219.40625 C 106.886719 219.40625 113.128906 215.394531 119.082031 209.878906 C 119.238281 209.738281 119.355469 209.574219 119.441406 209.386719 C 119.527344 209.199219 119.574219 209 119.578125 208.792969 C 119.585938 208.585938 119.550781 208.386719 119.476562 208.195312 C 119.402344 208 119.292969 207.832031 119.148438 207.683594 C 118.742188 207.269531 118.300781 206.894531 117.832031 206.554688 C 117.363281 206.214844 116.867188 205.914062 116.347656 205.652344 C 115.832031 205.394531 115.292969 205.175781 114.742188 205 C 114.1875 204.828125 113.625 204.699219 113.046875 204.613281 C 112.472656 204.53125 111.898438 204.492188 111.316406 204.503906 C 110.734375 204.511719 110.160156 204.566406 109.589844 204.667969 C 109.015625 204.769531 108.457031 204.917969 107.910156 205.109375 C 107.363281 205.300781 106.832031 205.535156 106.324219 205.8125 C 104.050781 207.097656 101.609375 207.6875 99 207.582031 C 94.730469 207.582031 90.46875 205.800781 89.960938 198.484375 C 89.953125 198.285156 89.976562 198.089844 90.042969 197.902344 C 90.105469 197.714844 90.203125 197.542969 90.335938 197.390625 C 90.464844 197.238281 90.617188 197.117188 90.796875 197.027344 C 90.972656 196.933594 91.160156 196.878906 91.359375 196.859375 C 119.019531 193.914062 121.207031 184.769531 121.207031 178.363281 Z M 106.820312 179.355469 C 106.585938 181.253906 105.90625 184.707031 93.476562 186.78125 C 93.199219 186.828125 92.933594 186.804688 92.671875 186.710938 C 92.410156 186.613281 92.1875 186.457031 92.011719 186.242188 C 91.832031 186.027344 91.722656 185.78125 91.675781 185.507812 C 91.632812 185.234375 91.65625 184.964844 91.757812 184.707031 C 95.058594 175.914062 100.234375 175.078125 102.765625 175.078125 C 103.046875 175.070312 103.320312 175.085938 103.597656 175.136719 C 103.871094 175.183594 104.136719 175.261719 104.394531 175.367188 C 104.652344 175.472656 104.898438 175.601562 105.125 175.761719 C 105.355469 175.917969 105.566406 176.097656 105.757812 176.300781 C 105.949219 176.503906 106.117188 176.722656 106.257812 176.960938 C 106.402344 177.199219 106.519531 177.453125 106.609375 177.714844 C 106.699219 177.976562 106.757812 178.25 106.789062 178.523438 C 106.824219 178.800781 106.824219 179.078125 106.796875 179.355469 Z M 57.363281 181.125 C 57.363281 181.125 54.652344 189.550781 52.640625 195.859375 C 52.53125 196.207031 52.328125 196.484375 52.027344 196.6875 C 51.726562 196.890625 51.390625 196.976562 51.027344 196.945312 C 50.664062 196.914062 50.351562 196.769531 50.089844 196.515625 C 49.828125 196.261719 49.675781 195.957031 49.632812 195.59375 C 48.464844 186.574219 46.527344 171.519531 45.921875 166.894531 C 45.898438 166.699219 45.835938 166.511719 45.742188 166.339844 C 45.644531 166.167969 45.519531 166.019531 45.367188 165.894531 C 45.210938 165.769531 45.039062 165.675781 44.851562 165.617188 C 44.664062 165.558594 44.46875 165.539062 44.269531 165.554688 C 34.363281 166.210938 29.199219 173.429688 26.3125 181.125 C 26.3125 181.125 23.011719 189.605469 20.589844 195.925781 C 20.460938 196.265625 20.238281 196.53125 19.921875 196.714844 C 19.605469 196.898438 19.265625 196.960938 18.902344 196.90625 C 18.542969 196.847656 18.238281 196.683594 17.996094 196.410156 C 17.75 196.136719 17.621094 195.816406 17.605469 195.453125 C 17.230469 189.289062 16.722656 181.375 16.722656 181.375 C 16.261719 172.476562 8.765625 166.671875 1.90625 165.664062 C 1.660156 165.625 1.417969 165.644531 1.179688 165.722656 C 0.945312 165.796875 0.738281 165.925781 0.5625 166.101562 C 0.386719 166.277344 0.261719 166.484375 0.1875 166.71875 C 0.109375 166.957031 0.09375 167.199219 0.132812 167.441406 L 8.433594 217.824219 C 8.46875 218.011719 8.535156 218.191406 8.632812 218.355469 C 8.730469 218.519531 8.855469 218.660156 9.007812 218.78125 C 9.160156 218.898438 9.328125 218.984375 9.511719 219.042969 C 9.695312 219.097656 9.882812 219.121094 10.074219 219.109375 C 20.523438 218.492188 26.203125 211.023438 29.097656 203.539062 C 29.097656 203.539062 31.917969 196.253906 34 190.847656 C 34.121094 190.515625 34.335938 190.257812 34.636719 190.074219 C 34.9375 189.886719 35.261719 189.816406 35.613281 189.855469 C 35.964844 189.894531 36.269531 190.035156 36.519531 190.28125 C 36.773438 190.527344 36.925781 190.828125 36.972656 191.175781 C 38.074219 199.339844 40.132812 213.394531 40.769531 217.789062 C 40.796875 217.984375 40.859375 218.167969 40.957031 218.335938 C 41.050781 218.507812 41.175781 218.652344 41.328125 218.777344 C 41.480469 218.902344 41.648438 218.992188 41.835938 219.050781 C 42.023438 219.109375 42.214844 219.132812 42.410156 219.121094 C 52.835938 218.550781 58.519531 211.769531 61.65625 204.296875 L 76.398438 167.761719 C 76.449219 167.636719 76.480469 167.507812 76.496094 167.371094 C 76.511719 167.238281 76.511719 167.105469 76.492188 166.96875 C 76.472656 166.835938 76.4375 166.707031 76.382812 166.582031 C 76.332031 166.460938 76.261719 166.34375 76.179688 166.238281 C 76.097656 166.128906 76.003906 166.035156 75.894531 165.953125 C 75.789062 165.871094 75.671875 165.804688 75.546875 165.75 C 75.421875 165.699219 75.292969 165.664062 75.160156 165.644531 C 75.027344 165.625 74.890625 165.625 74.757812 165.640625 C 65.300781 166.738281 60.160156 173.707031 57.371094 181.125 Z M 162.574219 164.246094 C 155.757812 164.246094 150.460938 168.023438 145.914062 173.5625 L 149.726562 143.171875 C 149.757812 142.9375 149.734375 142.710938 149.660156 142.488281 C 149.589844 142.265625 149.472656 142.066406 149.308594 141.898438 C 149.144531 141.730469 148.953125 141.605469 148.734375 141.523438 C 148.511719 141.441406 148.285156 141.410156 148.050781 141.433594 C 139.605469 142.457031 132.96875 150.222656 131.789062 161.210938 L 124.941406 216.847656 C 124.914062 217.074219 124.933594 217.300781 125.007812 217.519531 C 125.078125 217.738281 125.195312 217.929688 125.351562 218.097656 C 125.511719 218.265625 125.699219 218.394531 125.914062 218.476562 C 126.128906 218.5625 126.351562 218.597656 126.582031 218.582031 C 130.6875 218.296875 134.75 217.042969 137.503906 214.351562 C 137.648438 214.199219 137.8125 214.085938 138.003906 214.003906 C 138.195312 213.921875 138.398438 213.878906 138.605469 213.878906 C 138.8125 213.878906 139.011719 213.921875 139.203125 214.003906 C 139.394531 214.085938 139.5625 214.199219 139.707031 214.351562 C 140.449219 215.164062 141.273438 215.890625 142.171875 216.527344 C 143.070312 217.167969 144.03125 217.699219 145.046875 218.132812 C 146.058594 218.566406 147.109375 218.886719 148.195312 219.09375 C 149.277344 219.300781 150.371094 219.390625 151.476562 219.363281 C 167.121094 219.363281 177.722656 201.484375 177.722656 184.605469 C 177.46875 169.222656 170.148438 164.203125 162.574219 164.203125 Z M 161.066406 191.957031 C 159.546875 201.277344 154.25 207.824219 149.195312 207.824219 C 146.875 207.898438 144.714844 207.351562 142.710938 206.175781 C 142.457031 206.015625 142.265625 205.796875 142.132812 205.527344 C 142 205.253906 141.953125 204.96875 141.984375 204.671875 C 142.929688 196.878906 143.472656 192.046875 145.417969 187.671875 C 147.179688 183.386719 151.476562 176.332031 156.265625 176.332031 C 160.8125 176.332031 162.871094 182.375 161.066406 191.957031 Z M 216.113281 167.246094 C 216.144531 167.027344 216.125 166.808594 216.0625 166.597656 C 215.996094 166.386719 215.890625 166.199219 215.742188 166.03125 C 215.597656 165.863281 215.421875 165.738281 215.21875 165.644531 C 215.019531 165.554688 214.804688 165.507812 214.585938 165.507812 L 205.777344 165.507812 L 205.777344 165.003906 C 206.535156 157.949219 208.054688 154.167969 213.605469 153.664062 C 217.390625 153.160156 219.109375 151.398438 219.40625 149.136719 C 219.726562 148.039062 220.253906 145.28125 220.585938 143.421875 C 220.625 143.191406 220.617188 142.964844 220.554688 142.738281 C 220.492188 142.515625 220.386719 142.3125 220.234375 142.136719 C 220.082031 141.960938 219.898438 141.824219 219.683594 141.730469 C 219.46875 141.636719 219.246094 141.589844 219.011719 141.597656 C 198.796875 142.136719 192.101562 151.324219 190.382812 165.257812 L 190.382812 165.464844 L 190.097656 165.464844 C 186.5625 165.464844 182.777344 169.488281 182.015625 174.53125 C 181.984375 174.753906 182 174.972656 182.066406 175.1875 C 182.128906 175.402344 182.234375 175.59375 182.382812 175.761719 C 182.53125 175.933594 182.707031 176.0625 182.914062 176.152344 C 183.117188 176.246094 183.332031 176.289062 183.558594 176.289062 L 187.347656 176.289062 C 187.566406 176.289062 187.777344 176.335938 187.980469 176.429688 C 188.179688 176.519531 188.355469 176.648438 188.5 176.8125 C 188.648438 176.980469 188.753906 177.167969 188.816406 177.378906 C 188.882812 177.589844 188.902344 177.804688 188.875 178.023438 L 183.039062 226.613281 C 183.039062 226.613281 183.039062 226.691406 183.039062 226.722656 L 181.289062 235.789062 L 181.796875 235.789062 C 192.136719 235.285156 198.695312 227.480469 199.964844 215.636719 L 204.585938 177.707031 C 204.609375 177.519531 204.664062 177.339844 204.753906 177.171875 C 204.84375 177.003906 204.957031 176.859375 205.097656 176.734375 C 205.242188 176.605469 205.402344 176.511719 205.578125 176.445312 C 205.753906 176.375 205.9375 176.34375 206.128906 176.34375 L 208.332031 176.34375 C 211.632812 176.34375 215.398438 173.046875 216.160156 167.554688 Z M 272.871094 164.5 C 260.253906 164.5 248.386719 173.816406 244.851562 188.175781 C 241.316406 202.78125 246.625 219.660156 265.042969 219.660156 C 283.464844 219.660156 294.066406 202.023438 294.066406 187.167969 C 294.066406 172.5625 284.222656 164.5 272.871094 164.5 Z M 277.914062 191.453125 C 277.152344 198.046875 274.378906 207.824219 266.5625 207.824219 C 258.480469 207.824219 259.746094 196.230469 260.496094 190.695312 C 261.253906 184.902344 264.535156 176.585938 271.605469 176.585938 C 278.210938 176.585938 278.671875 184.144531 277.914062 191.453125 Z M 355.898438 181.125 C 355.898438 181.125 353.265625 189.332031 351.261719 195.617188 C 351.15625 195.964844 350.949219 196.242188 350.648438 196.445312 C 350.34375 196.648438 350.011719 196.734375 349.648438 196.699219 C 349.285156 196.667969 348.972656 196.523438 348.710938 196.265625 C 348.449219 196.011719 348.296875 195.703125 348.257812 195.34375 C 347.101562 186.296875 345.097656 171.453125 344.480469 166.894531 C 344.453125 166.699219 344.390625 166.511719 344.292969 166.339844 C 344.195312 166.167969 344.070312 166.019531 343.914062 165.894531 C 343.761719 165.769531 343.589844 165.679688 343.398438 165.621094 C 343.210938 165.5625 343.015625 165.539062 342.816406 165.554688 C 333.152344 166.222656 327.746094 173.441406 324.859375 181.125 C 324.859375 181.125 321.644531 189.453125 319.265625 195.75 C 319.140625 196.089844 318.917969 196.355469 318.601562 196.539062 C 318.285156 196.722656 317.949219 196.785156 317.585938 196.730469 C 317.226562 196.675781 316.921875 196.511719 316.679688 196.242188 C 316.433594 195.96875 316.300781 195.652344 316.285156 195.285156 C 315.929688 189.398438 315.558594 182.003906 315.523438 181.410156 C 315.53125 181.382812 315.53125 181.359375 315.523438 181.332031 C 315.429688 180.367188 315.257812 179.417969 315.007812 178.484375 C 314.757812 177.546875 314.429688 176.640625 314.027344 175.757812 C 313.628906 174.878906 313.15625 174.035156 312.617188 173.230469 C 312.074219 172.425781 311.472656 171.671875 310.804688 170.96875 C 310.140625 170.265625 309.421875 169.621094 308.648438 169.035156 C 307.875 168.449219 307.0625 167.929688 306.203125 167.480469 C 305.34375 167.027344 304.457031 166.648438 303.535156 166.34375 C 302.613281 166.039062 301.675781 165.8125 300.714844 165.664062 C 300.46875 165.625 300.230469 165.644531 299.992188 165.722656 C 299.753906 165.796875 299.550781 165.925781 299.375 166.101562 C 299.199219 166.277344 299.074219 166.484375 298.996094 166.71875 C 298.921875 166.957031 298.902344 167.199219 298.941406 167.441406 L 307.234375 217.8125 C 307.265625 218.003906 307.332031 218.183594 307.429688 218.347656 C 307.53125 218.515625 307.65625 218.660156 307.808594 218.777344 C 307.960938 218.898438 308.128906 218.988281 308.316406 219.042969 C 308.5 219.101562 308.691406 219.121094 308.886719 219.109375 C 319.082031 218.472656 324.75 211.011719 327.601562 203.539062 C 327.601562 203.539062 330.421875 196.253906 332.492188 190.847656 C 332.617188 190.519531 332.832031 190.265625 333.132812 190.082031 C 333.433594 189.898438 333.757812 189.828125 334.109375 189.867188 C 334.460938 189.90625 334.761719 190.046875 335.015625 190.289062 C 335.269531 190.535156 335.421875 190.828125 335.472656 191.175781 C 336.574219 199.339844 338.632812 213.394531 339.261719 217.789062 C 339.292969 217.984375 339.355469 218.164062 339.453125 218.332031 C 339.550781 218.503906 339.671875 218.648438 339.824219 218.769531 C 339.976562 218.894531 340.144531 218.984375 340.332031 219.046875 C 340.515625 219.105469 340.707031 219.128906 340.902344 219.121094 C 351.339844 218.550781 357.019531 211.769531 360.160156 204.296875 L 374.902344 167.761719 C 374.949219 167.636719 374.984375 167.507812 375 167.371094 C 375.015625 167.238281 375.011719 167.105469 374.992188 166.96875 C 374.976562 166.835938 374.9375 166.707031 374.886719 166.582031 C 374.832031 166.460938 374.765625 166.34375 374.683594 166.238281 C 374.601562 166.128906 374.507812 166.035156 374.398438 165.953125 C 374.292969 165.871094 374.175781 165.804688 374.050781 165.75 C 373.925781 165.699219 373.796875 165.664062 373.664062 165.644531 C 373.527344 165.625 373.394531 165.625 373.261719 165.640625 C 363.804688 166.738281 358.660156 173.707031 355.863281 181.125 Z M 226.683594 141.566406 L 217.625 215.121094 L 215.851562 224.195312 L 216.355469 224.195312 C 226.199219 223.945312 233.269531 215.40625 234.523438 204.550781 L 239.832031 162.488281 C 241.339844 149.640625 233.773438 141.609375 226.707031 141.609375 Z M 226.683594 141.566406 " fill-opacity="1" fill-rule="nonzero"/></g></svg>