<svg xmlns="http://www.w3.org/2000/svg" xmlns:xlink="http://www.w3.org/1999/xlink" width="500" zoomAndPan="magnify" viewBox="0 0 375 374.999991" height="500" preserveAspectRatio="xMidYMid meet" version="1.0"><defs><clipPath id="107e98b244"><path d="M 62.578125 125 L 312.328125 125 L 312.328125 250 L 62.578125 250 Z M 62.578125 125 " clip-rule="nonzero"/></clipPath><clipPath id="27a5d1f643"><path d="M 62.578125 0 L 312.328125 0 L 312.328125 126 L 62.578125 126 Z M 62.578125 0 " clip-rule="nonzero"/></clipPath><clipPath id="13018c680b"><path d="M 62.578125 249 L 188 249 L 188 375 L 62.578125 375 Z M 62.578125 249 " clip-rule="nonzero"/></clipPath></defs><g clip-path="url(#107e98b244)"><path fill="#24a8ff" d="M 312.328125 249.960938 L 62.578125 249.960938 L 62.578125 125.039062 L 187.453125 125.039062 Z M 312.328125 249.960938 " fill-opacity="1" fill-rule="nonzero"/></g><g clip-path="url(#27a5d1f643)"><path fill="#8ddcff" d="M 312.328125 0.117188 L 62.578125 0.117188 L 187.453125 125.039062 L 312.328125 125.039062 Z M 312.328125 0.117188 " fill-opacity="1" fill-rule="nonzero"/></g><g clip-path="url(#13018c680b)"><path fill="#054eff" d="M 187.453125 249.960938 L 187.453125 374.882812 L 62.578125 249.960938 Z M 187.453125 249.960938 " fill-opacity="1" fill-rule="nonzero"/></g></svg>