<svg xmlns="http://www.w3.org/2000/svg" xmlns:xlink="http://www.w3.org/1999/xlink" width="500" zoomAndPan="magnify" viewBox="0 0 375 374.999991" height="500" preserveAspectRatio="xMidYMid meet" version="1.0"><defs><clipPath id="c475565f3f"><path d="M 12 14.046875 L 363 14.046875 L 363 361.296875 L 12 361.296875 Z M 12 14.046875 " clip-rule="nonzero"/></clipPath></defs><g clip-path="url(#c475565f3f)"><path fill="#75aa9b" d="M 156.199219 14.175781 C 113.621094 15.953125 79.746094 49.804688 77.96875 92.40625 C 77.890625 94.347656 77.898438 97.496094 77.898438 99.441406 L 77.898438 181.132812 C 77.898438 181.667969 77.964844 182.191406 78.105469 182.707031 C 78.242188 183.226562 78.445312 183.714844 78.714844 184.179688 C 78.980469 184.640625 79.304688 185.0625 79.679688 185.441406 C 80.058594 185.820312 80.480469 186.140625 80.941406 186.410156 L 123.800781 211.164062 C 124.117188 211.347656 124.453125 211.4375 124.816406 211.4375 C 125.179688 211.4375 125.519531 211.347656 125.832031 211.164062 C 126.148438 210.984375 126.394531 210.734375 126.578125 210.421875 C 126.757812 210.105469 126.847656 209.769531 126.847656 209.40625 L 126.847656 89.695312 C 126.847656 89.160156 126.917969 88.632812 127.054688 88.113281 C 127.191406 87.597656 127.394531 87.105469 127.660156 86.640625 C 127.925781 86.175781 128.246094 85.753906 128.625 85.371094 C 129 84.992188 129.421875 84.664062 129.882812 84.394531 L 210.339844 37.117188 C 212.015625 36.132812 212.199219 34.285156 210.695312 33.050781 C 197.558594 22.265625 181.414062 15.019531 163.234375 14.183594 C 161.292969 14.097656 158.140625 14.097656 156.199219 14.175781 Z M 251.367188 35.734375 C 249.757812 35.765625 248.148438 35.847656 246.539062 35.976562 C 244.601562 36.132812 241.472656 36.523438 239.558594 36.851562 C 231.285156 38.253906 223.082031 40.960938 215.253906 45.054688 C 213.53125 45.957031 210.808594 47.539062 209.125 48.511719 L 138.4375 89.355469 C 137.972656 89.625 137.554688 89.945312 137.175781 90.324219 C 136.796875 90.703125 136.476562 91.125 136.207031 91.585938 C 135.941406 92.050781 135.738281 92.539062 135.597656 93.058594 C 135.460938 93.574219 135.390625 94.097656 135.390625 94.632812 L 135.390625 144.144531 C 135.390625 144.324219 135.414062 144.5 135.460938 144.671875 C 135.507812 144.84375 135.574219 145.007812 135.664062 145.160156 C 135.753906 145.316406 135.859375 145.457031 135.984375 145.582031 C 136.113281 145.707031 136.253906 145.816406 136.40625 145.90625 C 136.5625 145.992188 136.722656 146.0625 136.898438 146.109375 C 137.070312 146.152344 137.242188 146.175781 137.421875 146.175781 C 137.601562 146.175781 137.777344 146.152344 137.949219 146.109375 C 138.121094 146.0625 138.285156 145.996094 138.4375 145.90625 L 176.023438 124.21875 C 178.054688 123.046875 180.085938 121.871094 182.113281 120.699219 L 192.511719 114.675781 C 194.539062 113.5 196.570312 112.328125 198.601562 111.152344 L 242.027344 86.035156 C 242.152344 85.738281 242.320312 85.472656 242.535156 85.234375 C 242.746094 84.996094 242.992188 84.800781 243.273438 84.640625 C 243.550781 84.484375 243.847656 84.378906 244.160156 84.320312 C 244.476562 84.265625 244.792969 84.257812 245.105469 84.304688 L 246.542969 85.109375 L 329.308594 132.105469 C 330.996094 133.066406 332.6875 132.300781 333.003906 130.382812 C 335.765625 113.605469 333.949219 95.984375 325.578125 79.816406 C 324.6875 78.089844 323.109375 75.359375 322.070312 73.71875 C 307.566406 50.839844 283.617188 37.511719 258.398438 35.886719 C 256.460938 35.761719 254.882812 35.734375 254.882812 35.734375 Z M 65.273438 90.359375 C 49.382812 96.351562 35.070312 106.726562 25.265625 122.058594 C 24.21875 123.695312 22.644531 126.425781 21.746094 128.148438 C 1.988281 165.933594 14.347656 212.230469 50.328125 235.070312 C 51.96875 236.109375 54.699219 237.679688 56.382812 238.652344 L 127.039062 279.496094 C 127.910156 280.359375 128.9375 280.945312 130.121094 281.257812 L 168.683594 258.949219 C 170.714844 257.773438 172.746094 256.601562 174.777344 255.429688 L 176.023438 254.707031 C 176.339844 254.527344 176.585938 254.277344 176.769531 253.964844 C 176.949219 253.652344 177.039062 253.3125 177.039062 252.949219 C 177.039062 252.585938 176.949219 252.246094 176.769531 251.933594 C 176.585938 251.621094 176.339844 251.371094 176.023438 251.191406 L 138.4375 229.503906 C 136.40625 228.332031 134.375 227.160156 132.347656 225.984375 L 72.402344 191.351562 C 71.9375 191.082031 71.515625 190.757812 71.136719 190.382812 C 70.757812 190.003906 70.433594 189.582031 70.164062 189.121094 C 69.894531 188.65625 69.6875 188.167969 69.546875 187.652344 C 69.40625 187.132812 69.332031 186.609375 69.328125 186.070312 L 68.613281 92.699219 C 68.597656 90.753906 67.089844 89.671875 65.273438 90.359375 Z M 242.058594 95.945312 L 199.167969 120.703125 C 198.855469 120.882812 198.605469 121.132812 198.425781 121.445312 C 198.246094 121.757812 198.152344 122.097656 198.152344 122.460938 C 198.152344 122.824219 198.246094 123.160156 198.425781 123.476562 C 198.605469 123.789062 198.855469 124.039062 199.167969 124.21875 L 236.753906 145.90625 C 238.785156 147.078125 240.816406 148.25 242.847656 149.421875 L 302.792969 184.058594 C 303.257812 184.328125 303.675781 184.648438 304.058594 185.027344 C 304.4375 185.40625 304.761719 185.828125 305.03125 186.289062 C 305.300781 186.753906 305.503906 187.242188 305.648438 187.757812 C 305.789062 188.277344 305.859375 188.800781 305.863281 189.335938 L 306.578125 282.710938 C 306.59375 284.65625 308.101562 285.738281 309.921875 285.050781 C 325.824219 279.054688 340.152344 268.660156 349.960938 253.316406 C 351.007812 251.679688 352.582031 248.949219 353.480469 247.226562 C 373.234375 209.445312 360.878906 163.175781 324.898438 140.339844 C 323.257812 139.296875 320.523438 137.730469 318.84375 136.757812 L 248.152344 95.945312 C 247.691406 95.679688 247.199219 95.476562 246.683594 95.335938 C 246.167969 95.199219 245.640625 95.128906 245.105469 95.128906 C 244.574219 95.128906 244.046875 95.199219 243.53125 95.335938 C 243.011719 95.476562 242.523438 95.679688 242.058594 95.945312 Z M 248.34375 166.003906 L 248.34375 209.40625 C 248.34375 211.75 248.34375 214.097656 248.34375 216.441406 L 248.375 285.683594 C 248.847656 286.871094 248.839844 288.054688 248.34375 289.234375 L 164.886719 338.292969 C 163.210938 339.277344 163.027344 341.125 164.53125 342.355469 C 177.667969 353.136719 193.816406 360.363281 211.992188 361.191406 C 213.933594 361.28125 217.085938 361.28125 219.027344 361.199219 C 261.601562 359.425781 295.449219 325.570312 297.222656 282.972656 C 297.304688 281.03125 297.296875 277.878906 297.296875 275.933594 L 297.296875 194.277344 C 297.296875 193.742188 297.226562 193.21875 297.089844 192.703125 C 296.949219 192.183594 296.746094 191.695312 296.480469 191.230469 C 296.210938 190.769531 295.890625 190.347656 295.511719 189.96875 C 295.132812 189.589844 294.710938 189.269531 294.25 189 L 251.390625 164.246094 C 251.078125 164.0625 250.738281 163.972656 250.375 163.972656 C 250.011719 163.972656 249.671875 164.0625 249.359375 164.246094 C 249.046875 164.425781 248.796875 164.671875 248.617188 164.988281 C 248.433594 165.300781 248.34375 165.640625 248.34375 166.003906 Z M 236.757812 229.472656 L 199.199219 251.1875 C 197.171875 252.363281 195.140625 253.535156 193.109375 254.707031 L 133.164062 289.34375 C 132.703125 289.613281 132.210938 289.816406 131.695312 289.953125 C 131.175781 290.09375 130.652344 290.164062 130.117188 290.167969 C 129.578125 290.167969 129.054688 290.101562 128.535156 289.96875 C 128.015625 289.832031 127.523438 289.632812 127.058594 289.367188 L 45.886719 243.300781 C 44.195312 242.34375 42.503906 243.109375 42.191406 245.027344 C 39.425781 261.800781 41.242188 279.394531 49.613281 295.5625 C 50.507812 297.285156 52.082031 300.015625 53.125 301.65625 C 75.949219 337.667969 122.179688 350.113281 159.9375 330.351562 C 161.660156 329.453125 164.382812 327.871094 166.066406 326.898438 L 236.753906 286.085938 C 237.21875 285.820312 237.640625 285.496094 238.015625 285.117188 C 238.394531 284.738281 238.71875 284.320312 238.984375 283.855469 C 239.253906 283.390625 239.457031 282.902344 239.59375 282.386719 C 239.734375 281.867188 239.800781 281.34375 239.800781 280.808594 L 239.800781 231.230469 C 239.800781 230.867188 239.710938 230.53125 239.53125 230.214844 C 239.347656 229.902344 239.101562 229.652344 238.785156 229.472656 C 238.472656 229.292969 238.132812 229.199219 237.769531 229.199219 C 237.410156 229.199219 237.070312 229.292969 236.757812 229.472656 Z M 236.757812 229.472656 " fill-opacity="1" fill-rule="nonzero"/></g><path fill="#75aa9b" d="M 184.574219 243.289062 L 141.007812 218.132812 C 140.546875 217.867188 140.125 217.542969 139.746094 217.164062 C 139.367188 216.785156 139.046875 216.367188 138.777344 215.902344 C 138.511719 215.441406 138.308594 214.949219 138.167969 214.433594 C 138.03125 213.917969 137.960938 213.390625 137.960938 212.855469 L 137.953125 162.535156 C 137.953125 162 138.023438 161.472656 138.160156 160.957031 C 138.300781 160.441406 138.503906 159.949219 138.769531 159.488281 C 139.039062 159.023438 139.359375 158.601562 139.738281 158.226562 C 140.117188 157.847656 140.539062 157.523438 141 157.257812 L 184.558594 132.089844 C 185.023438 131.824219 185.511719 131.621094 186.027344 131.480469 C 186.542969 131.34375 187.070312 131.273438 187.605469 131.273438 C 188.140625 131.273438 188.664062 131.34375 189.183594 131.480469 C 189.699219 131.621094 190.1875 131.824219 190.652344 132.089844 L 234.21875 157.242188 C 234.679688 157.511719 235.101562 157.835938 235.480469 158.210938 C 235.859375 158.589844 236.179688 159.011719 236.449219 159.472656 C 236.714844 159.9375 236.917969 160.425781 237.058594 160.945312 C 237.195312 161.460938 237.265625 161.988281 237.265625 162.523438 L 237.273438 212.84375 C 237.273438 213.378906 237.203125 213.902344 237.0625 214.421875 C 236.925781 214.9375 236.722656 215.425781 236.457031 215.890625 C 236.1875 216.351562 235.867188 216.773438 235.488281 217.152344 C 235.109375 217.53125 234.6875 217.855469 234.226562 218.121094 L 190.667969 243.289062 C 190.203125 243.554688 189.714844 243.757812 189.199219 243.898438 C 188.679688 244.035156 188.15625 244.105469 187.621094 244.105469 C 187.085938 244.105469 186.5625 244.035156 186.042969 243.898438 C 185.527344 243.757812 185.039062 243.554688 184.574219 243.289062 Z M 184.574219 243.289062 " fill-opacity="1" fill-rule="nonzero"/></svg>